<svg width="20" height="20" viewBox="0 0 20 20" fill="none" xmlns="http://www.w3.org/2000/svg">
<path fill-rule="evenodd" clip-rule="evenodd" d="M5.62043 15.556C5.43906 15.4038 5.32557 15.1858 5.30494 14.95C5.2843 14.7141 5.35821 14.4797 5.51039 14.2983L12.1586 6.37531L6.75958 6.84894C6.64265 6.85917 6.52485 6.84627 6.4129 6.81097C6.30096 6.77567 6.19706 6.71867 6.10714 6.64322C6.01723 6.56777 5.94305 6.47535 5.88885 6.37124C5.83465 6.26712 5.80149 6.15335 5.79126 6.03642C5.78103 5.91948 5.79393 5.80168 5.82923 5.68974C5.86452 5.57779 5.92152 5.47389 5.99697 5.38398C6.07242 5.29406 6.16484 5.21988 6.26896 5.16568C6.37308 5.11148 6.48685 5.07832 6.60378 5.06809L14.1497 4.4079C14.2667 4.39752 14.3846 4.41032 14.4966 4.44556C14.6086 4.4808 14.7125 4.53778 14.8025 4.61326C14.8924 4.68874 14.9666 4.78122 15.0208 4.8854C15.0749 4.98959 15.108 5.10344 15.1181 5.22043L15.7782 12.7664C15.7885 12.8833 15.7756 13.0011 15.7403 13.1131C15.705 13.225 15.648 13.3289 15.5725 13.4188C15.4971 13.5087 15.4047 13.5829 15.3005 13.6371C15.1964 13.6913 15.0827 13.7245 14.9657 13.7347C14.7296 13.7554 14.4949 13.6814 14.3133 13.529C14.2234 13.4535 14.1492 13.3611 14.095 13.257C14.0408 13.1529 14.0076 13.0391 13.9974 12.9222L13.5263 7.52294L6.87808 15.446C6.7259 15.6273 6.5079 15.7408 6.27204 15.7615C6.03619 15.7821 5.80179 15.7082 5.62043 15.556Z" fill="white"/>
</svg>
