<?xml version="1.0" encoding="utf-8"?>
<!-- Generator: Adobe Illustrator 19.1.0, SVG Export Plug-In . SVG Version: 6.00 Build 0)  -->
<svg version="1.1" xmlns="http://www.w3.org/2000/svg" xmlns:xlink="http://www.w3.org/1999/xlink" x="0px" y="0px"
	 viewBox="0 0 595.3 469.5" style="enable-background:new 0 0 595.3 469.5;" xml:space="preserve">
<style type="text/css">
	.st0{fill:#010202;}
	.st1{fill:#FFFFFF;}
	.st2{fill:#7A8927;}
</style>
<g id="Laag_1">
	<g>
		<polyline class="st0" points="363.5,257.6 363.5,28.4 25.4,28.4 25.4,366.5 253.8,366.5 		"/>
		<path class="st1" d="M68.7,159c0-4.8-2.6-7.1-7.1-7.1H48.7v-34.9h37.8c14.5,0,21.6,6.8,21.6,18.4v4.8c0,3.5-0.3,7.1-0.3,7.1h0.6
			c7.8-16.1,27.4-34.2,53.3-34.2c24.9,0,41,11.6,48.1,33.9h0.6c8.7-17.8,30-33.9,56.2-33.9c34.2,0,53.9,19.4,53.9,62.6v64.3
			c0,4.5,2.6,7.1,7.1,7.1h12.6v34.5h-38.7c-15.5,0-22-6.5-22-22v-76.2c0-18.7-3.6-32.9-22.6-32.9c-20.3,0-34.9,17.1-39.4,37.8
			c-1.9,6.5-2.6,13.2-2.6,21v72.3h-41v-98.2c0-17.8-2.6-32.9-22.3-32.9c-20.7,0-34.5,17.1-39.7,38.1c-1.6,6.5-2.6,13.2-2.6,20.7
			v72.3H68.7V159z"/>
		<polyline class="st2" points="254.2,366.5 254.2,257.2 363.5,257.2 		"/>
		<g>
			<path d="M261.4,405.7c0-1-0.5-1.5-1.5-1.5h-2.8v-5.6h6.3c3,0,4.3,1.3,4.3,3.8v1.3c0,1.1-0.1,2-0.1,2h0.1c1.6-4,6.4-7.9,11.8-7.9
				c5.8,0,9.2,2.7,10.3,7.8h0.1c1.9-4.1,6.7-7.8,12.2-7.8c7.7,0,11.3,4.4,11.3,13.2v14.9c0,1,0.5,1.5,1.5,1.5h2.8v5.6h-6.5
				c-3.1,0-4.3-1.3-4.3-4.3v-16.2c0-4.8-1-8.6-6-8.6c-4.8,0-8.4,4.1-9.7,8.8c-0.3,1.4-0.5,2.9-0.5,4.7v15.7h-6.6v-20.6
				c0-4.5-0.7-8.6-5.9-8.6c-5,0-8.6,4.2-9.9,9.1c-0.3,1.4-0.5,2.9-0.5,4.4v15.7h-6.6V405.7z"/>
			<path d="M342.5,411.5h1.5v-0.3c0-6-2.2-8.2-7.6-8.2c-1.6,0-5.6,0.4-5.6,2.7v2h-6.2v-3.4c0-5.6,8.6-6.5,11.9-6.5
				c11.1,0,14.1,5.8,14.1,13.5v14.6c0,1,0.5,1.5,1.5,1.5h2.8v5.6h-6.2c-3.1,0-4.3-1.5-4.3-3.9c0-1.2,0.1-2,0.1-2h-0.1
				c0,0-2.7,6.8-10.9,6.8c-5.9,0-11.7-3.6-11.7-10.5C321.8,412.2,336.7,411.5,342.5,411.5z M334.9,428.4c5.6,0,9.2-5.8,9.2-10.9
				v-1.2h-1.7c-5,0-13.9,0.3-13.9,6.6C328.4,425.7,330.5,428.4,334.9,428.4z"/>
			<path d="M362,405.7c0-1-0.5-1.5-1.5-1.5h-2.8v-5.6h6.3c3,0,4.4,1.2,4.4,4v2.2c0,1.4-0.1,2.4-0.1,2.4h0.1c1.6-5,5.6-9,10.9-9
				c0.9,0,1.8,0.1,1.8,0.1v6.5c0,0-0.9-0.2-2-0.2c-4.2,0-8.1,3-9.7,8.1c-0.6,2-0.8,4.1-0.8,6.2v14.1H362V405.7z"/>
			<path d="M388.7,405.7c0-1-0.5-1.5-1.5-1.5h-2.8v-5.6h6.5c3.1,0,4.3,1.3,4.3,4.3v22.9c0,1,0.5,1.5,1.5,1.5h2.8v5.6H393
				c-3.1,0-4.3-1.3-4.3-4.3V405.7z M388.8,384.9h5.9v6.9h-5.9V384.9z"/>
			<path d="M407,405.7c0-1-0.5-1.5-1.5-1.5h-2.8v-5.6h6.3c2.9,0,4.3,1.3,4.3,3.8v1.3c0,1.1-0.1,2-0.1,2h0.1c1.4-3,5.4-7.9,12.9-7.9
				c8.2,0,11.8,4.4,11.8,13.2v14.9c0,1,0.5,1.5,1.5,1.5h2.8v5.6h-6.5c-3.1,0-4.3-1.3-4.3-4.3v-16.2c0-4.8-1-8.6-6.5-8.6
				c-5.3,0-9.5,3.5-10.9,8.4c-0.5,1.4-0.6,2.9-0.6,4.6v16.1H407V405.7z"/>
			<path d="M467,411.5h1.5v-0.3c0-6-2.2-8.2-7.6-8.2c-1.6,0-5.6,0.4-5.6,2.7v2h-6.2v-3.4c0-5.6,8.6-6.5,11.9-6.5
				c11.1,0,14.1,5.8,14.1,13.5v14.6c0,1,0.5,1.5,1.5,1.5h2.8v5.6h-6.2c-3.1,0-4.3-1.5-4.3-3.9c0-1.2,0.1-2,0.1-2h-0.1
				c0,0-2.7,6.8-10.9,6.8c-5.9,0-11.7-3.6-11.7-10.5C446.3,412.2,461.2,411.5,467,411.5z M459.4,428.4c5.6,0,9.2-5.8,9.2-10.9v-1.2
				h-1.7c-5,0-13.9,0.3-13.9,6.6C453,425.7,455.1,428.4,459.4,428.4z"/>
			<path d="M498.8,397.7c8,0,10.6,5.3,10.6,5.3h0.1c0,0-0.1-1-0.1-2.3v-8.6c0-1-0.5-1.5-1.5-1.5h-2.8v-5.6h6.5
				c3.1,0,4.3,1.3,4.3,4.3v36.5c0,1,0.5,1.5,1.5,1.5h2.8v5.6H514c-3,0-4.2-1.4-4.2-3.7c0-1,0.1-1.8,0.1-1.8h-0.1
				c0,0-2.9,6.3-11.3,6.3c-9.3,0-15.2-7.3-15.2-18C483.3,404.8,489.7,397.7,498.8,397.7z M509.6,415.7c0-6.1-3.2-12.2-9.8-12.2
				c-5.4,0-9.9,4.5-9.9,12.3c0,7.5,4,12.3,9.7,12.3C504.8,428,509.6,424.4,509.6,415.7z"/>
			<path d="M541.6,397.7c9.7,0,14.8,7.2,14.8,16.1c0,0.9-0.2,2.7-0.2,2.7h-25.1c0.4,7.3,5.7,11.5,11.8,11.5c5.9,0,10.1-4,10.1-4
				l2.9,4.7c0,0-5.1,5-13.3,5c-10.9,0-18.3-7.8-18.3-18C524.3,404.8,531.8,397.7,541.6,397.7z M549.6,411.7
				c-0.2-5.7-3.8-8.8-8.1-8.8c-5,0-9.1,3.1-10.1,8.8H549.6z"/>
		</g>
		<g>
			<path d="M365.3,361.7c0,0,4.1,5.1,10.4,5.1c3.2,0,6-1.4,6-4.4c0-6.2-18.8-5.5-18.8-16.6c0-6.6,5.8-9.7,12.8-9.7
				c4.1,0,11.3,1.4,11.3,6.7v3.3h-5.9v-1.7c0-2-3.1-2.9-5.2-2.9c-3.9,0-6.4,1.4-6.4,4.1c0,6.5,18.8,5.1,18.8,16.6
				c0,6.1-5.4,10.1-12.6,10.1c-9.2,0-13.7-6-13.7-6L365.3,361.7z"/>
			<path d="M397,342.2h-4.5v-5.3h4.6v-9.4h6.5v9.4h8.2v5.3h-8.2V358c0,6.9,4.8,7.7,7.3,7.7c1,0,1.6-0.1,1.6-0.1v5.8
				c0,0-0.9,0.1-2.3,0.1c-4.3,0-13.1-1.4-13.1-12.8V342.2z"/>
			<path d="M420.5,344.1c0-1-0.5-1.5-1.5-1.5h-2.8v-5.6h6.5c3.1,0,4.4,1.3,4.4,4.2v16.3c0,4.8,1,8.6,6.4,8.6c7.1,0,11.2-6.2,11.2-13
				v-16.1h6.6v27.3c0,1,0.5,1.5,1.5,1.5h2.8v5.6h-6.3c-2.9,0-4.3-1.4-4.3-3.8v-1.3c0-1.1,0.1-2,0.1-2h-0.1
				c-1.4,3.4-5.8,7.9-12.6,7.9c-7.7,0-11.7-4.1-11.7-13.2V344.1z"/>
			<path d="M475.2,336.1c8,0,10.6,5.3,10.6,5.3h0.1c0,0-0.1-1-0.1-2.3v-8.6c0-1-0.5-1.5-1.5-1.5h-2.8v-5.6h6.5
				c3.1,0,4.3,1.3,4.3,4.3v36.5c0,1,0.5,1.5,1.5,1.5h2.8v5.6h-6.3c-3,0-4.2-1.4-4.2-3.7c0-1,0.1-1.8,0.1-1.8H486
				c0,0-2.9,6.3-11.3,6.3c-9.3,0-15.2-7.3-15.2-18C459.6,343.2,466.1,336.1,475.2,336.1z M486,354.1c0-6.1-3.2-12.2-9.8-12.2
				c-5.4,0-9.9,4.5-9.9,12.3c0,7.5,4,12.3,9.7,12.3C481.2,366.4,486,362.8,486,354.1z"/>
			<path d="M504.3,344.1c0-1-0.5-1.5-1.5-1.5h-2.8v-5.6h6.5c3.1,0,4.3,1.3,4.3,4.3v22.9c0,1,0.5,1.5,1.5,1.5h2.8v5.6h-6.5
				c-3.1,0-4.3-1.3-4.3-4.3V344.1z M504.5,323.3h5.9v6.9h-5.9V323.3z"/>
			<path d="M537.8,336.1c10.3,0,18.6,7.5,18.6,17.9c0,10.5-8.3,18.1-18.6,18.1c-10.3,0-18.5-7.6-18.5-18.1
				C519.4,343.7,527.6,336.1,537.8,336.1z M537.8,366.4c6.5,0,11.8-5.2,11.8-12.4c0-7.1-5.3-12.2-11.8-12.2
				c-6.5,0-11.8,5.1-11.8,12.2C526.1,361.3,531.4,366.4,537.8,366.4z"/>
		</g>
	</g>
</g>
<g id="Laag_2">
</g>
</svg>
