<svg width="11" height="13" viewBox="0 0 11 13" fill="none" xmlns="http://www.w3.org/2000/svg">
<path fill-rule="evenodd" clip-rule="evenodd" d="M0.614601 11.8146C0.433457 11.6648 0.320265 11.45 0.299926 11.2176C0.279587 10.9851 0.353767 10.754 0.506146 10.5751L7.16287 2.7575L1.76431 3.23091C1.64738 3.24113 1.52962 3.22856 1.41774 3.19391C1.30586 3.15925 1.20205 3.1032 1.11225 3.02894C1.02244 2.95468 0.948392 2.86367 0.894331 2.76111C0.840272 2.65856 0.807257 2.54646 0.797174 2.43121C0.78709 2.31597 0.800134 2.19984 0.835562 2.08946C0.87099 1.97907 0.928109 1.87659 1.00365 1.78787C1.0792 1.69915 1.1717 1.62593 1.27586 1.57238C1.38002 1.51883 1.49381 1.486 1.61073 1.47578L9.15604 0.815861C9.27299 0.805486 9.39081 0.817954 9.50276 0.852551C9.6147 0.887147 9.71857 0.943193 9.8084 1.01748C9.89824 1.09176 9.97229 1.18283 10.0263 1.28546C10.0803 1.38808 10.1132 1.50026 10.1232 1.61556L10.7739 9.05254C10.784 9.16778 10.7709 9.28391 10.7355 9.3943C10.7001 9.50468 10.643 9.60716 10.5674 9.69588C10.4919 9.7846 10.3994 9.85782 10.2952 9.91137C10.1911 9.96492 10.0773 9.99775 9.96034 10.008C9.72421 10.0286 9.48965 9.95598 9.30828 9.806C9.21847 9.73175 9.14443 9.64074 9.09037 9.53818C9.03631 9.43562 9.00329 9.32352 8.99321 9.20828L8.52887 3.88701L1.87215 11.7046C1.71977 11.8835 1.50167 11.9956 1.26584 12.0163C1.03 12.0369 0.795745 11.9643 0.614601 11.8146Z" fill="white"/>
</svg>
